<svg width="151" height="89" viewBox="0 0 151 89" fill="none" xmlns="http://www.w3.org/2000/svg">
<g filter="url(#filter0_i_516_4441)">
<path d="M84.8394 14.6649C83.3752 14.6644 81.9373 15.0534 80.6729 15.7918C79.4086 16.5303 78.3634 17.5916 77.6444 18.8671C76.9254 20.1427 76.5586 21.5864 76.5814 23.0504C76.6043 24.5144 77.016 25.946 77.7745 27.1985C75.8907 27.5625 74.1924 28.5709 72.9712 30.0507C71.75 31.5305 66.4905 34.8475 66.4905 36.7661C66.4905 38.6847 71.75 39.0853 72.9712 40.5651C74.1924 42.0448 75.8907 43.0533 77.7745 43.4173M84.8394 14.6649C84.8394 12.84 85.5643 11.0899 86.8547 9.79957C88.1451 8.50921 89.8951 7.7843 91.72 7.7843C93.5448 7.7843 95.2949 8.50921 96.5853 9.79957C97.8756 11.0899 98.6005 12.84 98.6005 14.6649V55.9482C98.6005 57.773 97.8756 59.5231 96.5853 60.8134C95.2949 62.1038 93.5448 62.8287 91.72 62.8287C89.8951 62.8287 88.1451 62.1038 86.8547 60.8134C85.5643 59.5231 87.5917 53.5714 87.5917 51.7465C86.1279 51.7467 81.9382 55.5593 80.6742 54.821C79.4103 54.0827 78.3653 53.0216 77.6464 51.7465C76.9276 50.4715 76.5606 49.0282 76.5831 47.5646C76.6056 46.101 77.0167 44.6697 77.7745 43.4173M84.8394 14.6649C84.8394 16.9162 85.9211 18.9143 87.5917 20.1693M77.7745 43.4173C78.7622 41.7821 75.9736 41.2024 77.7745 40.5651M118.554 15.3529L112.362 21.5454H106.857M118.554 55.2601L112.362 49.0676H106.857M118.554 35.3065H106.857M116.49 15.3529C116.49 15.9004 116.707 16.4254 117.095 16.8125C117.482 17.1996 118.007 17.4171 118.554 17.4171C119.102 17.4171 119.627 17.1996 120.014 16.8125C120.401 16.4254 120.618 15.9004 120.618 15.3529C120.618 14.8055 120.401 14.2804 120.014 13.8933C119.627 13.5062 119.102 13.2887 118.554 13.2887C118.007 13.2887 117.482 13.5062 117.095 13.8933C116.707 14.2804 116.49 14.8055 116.49 15.3529ZM116.49 55.2601C116.49 54.7126 116.707 54.1876 117.095 53.8005C117.482 53.4134 118.007 53.1959 118.554 53.1959C119.102 53.1959 119.627 53.4134 120.014 53.8005C120.401 54.1876 120.618 54.7126 120.618 55.2601C120.618 55.8076 120.401 56.3326 120.014 56.7197C119.627 57.1068 119.102 57.3243 118.554 57.3243C118.007 57.3243 117.482 57.1068 117.095 56.7197C116.707 56.3326 116.49 55.8076 116.49 55.2601ZM116.49 35.3065C116.49 35.854 116.707 36.379 117.095 36.7661C117.482 37.1532 118.007 37.3707 118.554 37.3707C119.102 37.3707 119.627 37.1532 120.014 36.7661C120.401 36.379 120.618 35.854 120.618 35.3065C120.618 34.7591 120.401 34.234 120.014 33.8469C119.627 33.4598 119.102 33.2423 118.554 33.2423C118.007 33.2423 117.482 33.4598 117.095 33.8469C116.707 34.234 116.49 34.7591 116.49 35.3065Z" stroke="#267E61" stroke-width="4.12833" stroke-linecap="round" stroke-linejoin="round"/>
</g>
<g clip-path="url(#clip0_516_4441)">
<g filter="url(#filter1_n_516_4441)">
<path d="M46.7772 34.3892C47.4264 32.5529 48.704 31.0052 50.3839 30.0197C52.0639 29.0342 54.0382 28.6743 55.9579 29.0037C57.8775 29.333 59.619 30.3304 60.8744 31.8196C62.1298 33.3087 68.3255 35.1937 68.3255 37.1414C68.3255 39.0891 62.1298 40.9741 60.8744 42.4633C59.619 43.9524 57.8775 44.9498 55.9579 45.2792C54.0382 45.6085 52.0639 45.2487 50.3839 44.2631C48.704 43.2776 47.4264 41.73 46.7772 39.8936H39.4159C38.7646 41.737 37.4802 43.2893 35.7915 44.2745C34.1028 45.2596 32.1194 45.6135 30.1942 45.2733L26.2346 52.275C27.4251 53.8162 28.0324 55.7285 27.9494 57.6742C27.8664 59.6198 27.0983 61.4735 25.7809 62.9077C24.4635 64.3419 22.6816 65.2643 20.75 65.5118C18.8183 65.7594 16.8614 65.3163 15.2249 64.2607C13.5883 63.2051 12.3776 61.6051 11.8066 59.7433C11.2355 57.8814 11.3409 55.8777 12.1042 54.0861C12.8675 52.2945 14.2394 50.8303 15.9777 49.9523C17.7159 49.0743 19.7086 48.839 21.6036 49.2879L25.4016 42.5651C24.0926 41.0615 23.3718 39.135 23.3723 37.1414C23.3723 35.0644 24.1393 33.1709 25.4016 31.7177L21.6036 24.995C19.7086 25.4439 17.7159 25.2085 15.9777 24.3305C14.2394 23.4525 12.8675 21.9883 12.1042 20.1967C11.3409 18.4051 11.2355 16.4014 11.8066 14.5396C12.3776 12.6778 13.5883 11.0777 15.2249 10.0221C16.8614 8.96656 18.8183 8.52341 20.75 8.77099C22.6816 9.01858 24.4635 9.94095 25.7809 11.3751C27.0983 12.8093 27.8664 14.663 27.9494 16.6086C28.0324 18.5543 27.4251 20.4667 26.2346 22.0079L30.1942 29.0095C32.1194 28.6693 34.1028 29.0232 35.7915 30.0084C37.4802 30.9935 38.7646 32.5459 39.4159 34.3892H46.7772ZM16.9505 16.9585C16.9505 17.6884 17.2404 18.3884 17.7566 18.9046C18.2727 19.4207 18.9728 19.7107 19.7027 19.7107C20.4326 19.7107 21.1327 19.4207 21.6488 18.9046C22.165 18.3884 22.4549 17.6884 22.4549 16.9585C22.4549 16.2285 22.165 15.5285 21.6488 15.0124C21.1327 14.4962 20.4326 14.2062 19.7027 14.2062C18.9728 14.2062 18.2727 14.4962 17.7566 15.0124C17.2404 15.5285 16.9505 16.2285 16.9505 16.9585ZM31.629 34.3892C30.8991 34.3892 30.199 34.6792 29.6829 35.1953C29.1667 35.7114 28.8768 36.4115 28.8768 37.1414C28.8768 37.8714 29.1667 38.5714 29.6829 39.0875C30.199 39.6037 30.8991 39.8936 31.629 39.8936C32.3589 39.8936 33.059 39.6037 33.5751 39.0875C34.0912 38.5714 34.3812 37.8714 34.3812 37.1414C34.3812 36.4115 34.0912 35.7114 33.5751 35.1953C33.059 34.6792 32.3589 34.3892 31.629 34.3892ZM54.5642 34.3892C53.8342 34.3892 53.1342 34.6792 52.618 35.1953C52.1019 35.7114 51.8119 36.4115 51.8119 37.1414C51.8119 37.8714 52.1019 38.5714 52.618 39.0875C53.1342 39.6037 53.8342 39.8936 54.5642 39.8936C55.2941 39.8936 55.9941 39.6037 56.5103 39.0875C57.0264 38.5714 57.3164 37.8714 57.3164 37.1414C57.3164 36.4115 57.0264 35.7114 56.5103 35.1953C55.9941 34.6792 55.2941 34.3892 54.5642 34.3892ZM19.7027 54.5721C18.9728 54.5721 18.2727 54.8621 17.7566 55.3782C17.2404 55.8944 16.9505 56.5944 16.9505 57.3244C16.9505 58.0543 17.2404 58.7543 17.7566 59.2705C18.2727 59.7866 18.9728 60.0766 19.7027 60.0766C20.4326 60.0766 21.1327 59.7866 21.6488 59.2705C22.165 58.7543 22.4549 58.0543 22.4549 57.3244C22.4549 56.5944 22.165 55.8944 21.6488 55.3782C21.1327 54.8621 20.4326 54.5721 19.7027 54.5721Z" fill="#267E61"/>
</g>
</g>
<defs>
<filter id="filter0_i_516_4441" x="64.4263" y="5.72009" width="58.2561" height="63.178" filterUnits="userSpaceOnUse" color-interpolation-filters="sRGB">
<feFlood flood-opacity="0" result="BackgroundImageFix"/>
<feBlend mode="normal" in="SourceGraphic" in2="BackgroundImageFix" result="shape"/>
<feColorMatrix in="SourceAlpha" type="matrix" values="0 0 0 0 0 0 0 0 0 0 0 0 0 0 0 0 0 0 127 0" result="hardAlpha"/>
<feOffset dy="4.0053"/>
<feGaussianBlur stdDeviation="15.0199"/>
<feComposite in2="hardAlpha" operator="arithmetic" k2="-1" k3="1"/>
<feColorMatrix type="matrix" values="0 0 0 0 0 0 0 0 0 0 0 0 0 0 0 0 0 0 0.25 0"/>
<feBlend mode="normal" in2="shape" result="effect1_innerShadow_516_4441"/>
</filter>
<filter id="filter1_n_516_4441" x="11.4436" y="8.70398" width="56.8818" height="56.8749" filterUnits="userSpaceOnUse" color-interpolation-filters="sRGB">
<feFlood flood-opacity="0" result="BackgroundImageFix"/>
<feBlend mode="normal" in="SourceGraphic" in2="BackgroundImageFix" result="shape"/>
<feTurbulence type="fractalNoise" baseFrequency="0.0099999997764825821 0.0099999997764825821" stitchTiles="stitch" numOctaves="3" result="noise" seed="6018" />
<feColorMatrix in="noise" type="luminanceToAlpha" result="alphaNoise" />
<feComponentTransfer in="alphaNoise" result="coloredNoise1">
<feFuncA type="discrete" tableValues="1 1 1 1 1 1 1 1 1 1 1 1 1 1 1 1 1 1 1 1 1 1 1 1 1 1 1 1 1 1 1 1 1 1 1 1 1 1 1 1 1 1 1 1 1 1 1 1 1 1 1 0 0 0 0 0 0 0 0 0 0 0 0 0 0 0 0 0 0 0 0 0 0 0 0 0 0 0 0 0 0 0 0 0 0 0 0 0 0 0 0 0 0 0 0 0 0 0 0 0 "/>
</feComponentTransfer>
<feComposite operator="in" in2="shape" in="coloredNoise1" result="noise1Clipped" />
<feFlood flood-color="rgba(0, 0, 0, 0.25)" result="color1Flood" />
<feComposite operator="in" in2="noise1Clipped" in="color1Flood" result="color1" />
<feMerge result="effect1_noise_516_4441">
<feMergeNode in="shape" />
<feMergeNode in="color1" />
</feMerge>
</filter>
<clipPath id="clip0_516_4441">
<rect width="58.714" height="58.714" fill="white" transform="translate(7.77661 7.7843)"/>
</clipPath>
</defs>
</svg>
