<svg width="154" height="144" viewBox="0 0 154 144" fill="none" xmlns="http://www.w3.org/2000/svg">
<g>
<mask id="mask0_516_4415" style="mask-type:luminance" maskUnits="userSpaceOnUse" x="36" y="37" width="82" height="71">
<path d="M117.215 37.4503H36.1073V107.293H117.215V37.4503Z" fill="white"/>
</mask>
<g mask="url(#mask0_516_4415)">
<path d="M76.661 103.745C74.3291 103.745 72.1325 102.726 70.5779 100.951L65.5088 95.1307C65.4074 95.0143 65.0018 94.8687 64.8328 94.8396H63.1431C49.0507 94.8396 40.3317 91.5512 40.3317 75.1965V60.646C40.3317 47.7833 48.2058 41.0028 63.1431 41.0028H90.1789C105.116 41.0028 112.99 47.7833 112.99 60.646V75.1965C112.99 88.0591 105.116 94.8396 90.1789 94.8396H88.4891C88.2188 94.8396 87.9822 94.956 87.8132 95.1307L82.744 100.951C81.1895 102.726 78.9928 103.745 76.661 103.745ZM63.1431 45.368C51.0446 45.368 45.4009 50.2278 45.4009 60.646V75.1965C45.4009 88.3501 50.6391 90.4745 63.1431 90.4745H64.8328C66.5564 90.4745 68.5164 91.3184 69.5641 92.5116L74.6333 98.3318C75.8161 99.6704 77.5058 99.6704 78.6887 98.3318L83.7579 92.5116C84.8731 91.2311 86.6304 90.4745 88.4891 90.4745H90.1789C102.277 90.4745 107.921 85.6146 107.921 75.1965V60.646C107.921 50.2278 102.277 45.368 90.1789 45.368H63.1431Z" fill="#167555"/>
<path d="M63.1429 76.5933C62.5008 76.5933 61.8587 76.3893 61.3518 75.9528L54.5928 70.1326C53.6128 69.2887 53.6128 67.8918 54.5928 67.0479L61.3518 61.2278C62.3318 60.3839 63.954 60.3839 64.934 61.2278C65.914 62.0717 65.914 63.4685 64.934 64.3125L59.9662 68.5905L64.934 72.8681C65.914 73.712 65.914 75.1089 64.934 75.9528C64.4271 76.3893 63.785 76.5933 63.1429 76.5933Z" fill="#167555"/>
<path d="M90.1783 76.5933C89.5362 76.5933 88.8941 76.3893 88.3871 75.9528C87.4071 75.1089 87.4071 73.712 88.3871 72.8681L93.355 68.5905L88.3871 64.3125C87.4071 63.4685 87.4071 62.0717 88.3871 61.2278C89.3672 60.3839 90.9893 60.3839 91.9694 61.2278L98.7283 67.0479C99.7084 67.8918 99.7084 69.2887 98.7283 70.1326L91.9694 75.9528C91.4625 76.3893 90.8204 76.5933 90.1783 76.5933Z" fill="#167555"/>
<path d="M73.2811 77.5509C72.9431 77.5509 72.6052 77.4924 72.2672 77.376C70.983 76.9104 70.3747 75.63 70.9492 74.495L77.7082 60.905C78.2489 59.7992 79.7359 59.2753 81.0539 59.77C82.3381 60.2356 82.9464 61.516 82.3718 62.651L75.6129 76.2414C75.2074 77.0562 74.2611 77.5509 73.2811 77.5509Z" fill="#167555"/>
</g>
</g>
</svg>
