<svg width="74" height="69" viewBox="0 0 74 69" fill="none" xmlns="http://www.w3.org/2000/svg">
<g clip-path="url(#clip0_516_4428)">
<g>
<path d="M73.6227 50.1047C73.4318 49.3889 73.123 48.7094 72.709 48.094C72.7981 47.7694 72.8654 47.4407 72.9109 47.1077C73.2047 44.9966 72.4697 43.0629 71.0835 41.5685C70.3328 40.7517 69.5284 40.2126 68.6761 39.8815C69.2356 37.4991 69.5188 35.0608 69.5202 32.6142C69.5202 31.4973 69.4565 30.4031 69.3503 29.3248C69.2945 28.7863 69.2274 28.249 69.149 27.7133C68.9051 26.1331 68.543 24.5732 68.0657 23.0466C67.7528 22.0435 67.3912 21.0562 66.9821 20.088C66.3685 18.6549 65.6518 17.2677 64.8377 15.9371C64.3034 15.0518 63.722 14.1955 63.0959 13.3719C62.789 12.9561 62.469 12.5502 62.1363 12.1546C61.1506 10.9614 60.079 9.84124 58.93 8.80293C58.5488 8.45379 58.1565 8.11673 57.7539 7.79229C57.3574 7.46302 56.9522 7.14431 56.5387 6.83649C55.7062 6.22005 54.846 5.64156 53.9609 5.10282C49.0697 2.14648 43.3339 0.450317 37.2012 0.450317C19.3516 0.450317 4.88471 14.85 4.88471 32.6165C4.88429 35.0931 5.17271 37.5614 5.74417 39.9718C4.97751 40.3032 4.24226 40.8193 3.56126 41.5665C2.17557 43.0615 1.44032 44.9876 1.73442 47.0989C1.77868 47.4346 1.84635 47.7668 1.93572 48.0931C1.52161 48.7088 1.21286 49.3886 1.02201 50.1047C0.59628 51.7162 0.736478 53.1691 1.27756 54.4432C0.689365 56.1075 0.836415 57.8793 1.60279 59.4208C2.15986 60.546 2.95765 61.416 3.94045 62.1944C5.10914 63.1189 6.57222 63.9051 8.33768 64.6585C10.4432 65.5523 13.0124 66.3922 14.18 66.7003C17.1989 67.4784 20.0934 67.9715 23.0284 67.9954C27.2095 68.034 30.8083 67.0555 33.3853 64.5519C34.6513 64.7062 35.9254 64.7836 37.2006 64.7833C38.5483 64.7804 39.8946 64.6957 41.2326 64.5303C43.8038 67.0498 47.4156 68.0375 51.6109 67.9977C54.5442 67.9744 57.4387 67.4813 60.4485 66.7017C61.6249 66.3939 64.193 65.554 66.3013 64.6608C68.0662 63.9053 69.529 63.1198 70.706 62.1961C71.6814 61.4182 72.478 60.5477 73.0359 59.4225C73.8097 57.8821 73.9494 56.1098 73.3686 54.4449C73.9048 53.1719 74.0442 51.7156 73.6184 50.1064L73.6227 50.1047ZM70.6275 54.3338C71.2205 55.4535 71.2585 56.7197 70.7351 57.898C69.9413 59.6851 67.9703 61.0922 64.1404 62.604C61.7599 63.5438 59.5796 64.1444 59.5619 64.1501C56.413 64.9629 53.5637 65.3758 51.1004 65.3758C47.0187 65.3758 43.9806 64.2546 42.0532 62.0404C38.7951 62.5925 35.4682 62.6112 32.204 62.0958C30.2752 64.2734 27.2563 65.3756 23.2066 65.3756C20.741 65.3756 17.8934 64.9632 14.7451 64.1501C14.7256 64.1444 12.5464 63.5438 10.1665 62.604C6.33694 61.0928 4.36704 59.6866 3.57183 57.898C3.04845 56.7191 3.08642 55.4535 3.67948 54.3335C3.73449 54.2295 3.79331 54.1283 3.85594 54.0299C3.5002 53.4986 3.26162 52.8984 3.1559 52.2686C3.05018 51.6389 3.07974 50.994 3.24261 50.3764C3.47817 49.4854 3.96501 48.7442 4.62602 48.2119C4.30807 47.6911 4.09925 47.1116 4.01212 46.5084C3.82196 45.1962 4.25911 43.886 5.24363 42.8165C6.01 41.9852 7.0936 41.5279 8.2937 41.5279H8.3254C7.42071 38.6413 6.96205 35.6346 6.96511 32.6108C6.96511 16.1233 20.3955 2.75525 36.9602 2.75525C53.5283 2.75525 66.9552 16.1233 66.9552 32.6108C66.9574 35.6422 66.4955 38.6563 65.5855 41.5492C65.7302 41.5348 65.8722 41.5275 66.0115 41.5273C67.2111 41.5273 68.2949 41.9846 69.061 42.8159C70.0453 43.8831 70.4836 45.1947 70.2928 46.5078C70.2057 47.1111 69.9969 47.6907 69.6789 48.2116C70.3397 48.7437 70.8268 49.4849 71.0623 50.3762C71.2245 50.9938 71.2537 51.6385 71.148 52.2682C71.0423 52.8978 70.8041 53.4981 70.449 54.0297C70.5118 54.1263 70.5712 54.2283 70.6255 54.3321L70.6275 54.3338Z" fill="white"/>
</g>
<g>
<path d="M70.4281 54.0262C70.7833 53.4946 71.0215 52.8942 71.1273 52.2645C71.233 51.6349 71.2039 50.9901 71.0417 50.3724C70.8059 49.4814 70.3191 48.7402 69.658 48.2078C69.976 47.687 70.1848 47.1075 70.2719 46.5043C70.4624 45.1924 70.0252 43.8819 69.0407 42.8124C68.2743 41.9814 67.1905 41.5238 65.9906 41.5238C65.8515 41.5238 65.7096 41.531 65.5649 41.5454C66.474 38.6525 66.935 35.6385 66.9321 32.6073C66.9321 16.1198 53.5014 2.75146 36.9367 2.75146C20.372 2.75146 6.94223 16.1161 6.94223 32.6073C6.93919 35.631 7.39786 38.6376 8.30251 41.5241H8.27082C7.071 41.5241 5.9874 41.9817 5.22132 42.813C4.23737 43.8802 3.79936 45.1912 3.98952 46.5049C4.07669 47.108 4.28551 47.6874 4.60342 48.2081C3.94269 48.7407 3.45557 49.4819 3.22029 50.3732C3.05778 50.9909 3.02847 51.6359 3.13428 52.2657C3.24008 52.8955 3.47862 53.4958 3.83419 54.0273C3.77102 54.1258 3.71224 54.2269 3.65802 54.3305C3.06525 55.4509 3.02699 56.7168 3.55037 57.8954C4.34358 59.6819 6.3152 61.0896 10.1451 62.601C12.5256 63.5409 14.7059 64.1414 14.7236 64.1471C17.8725 64.96 20.7218 65.3732 23.1851 65.3732C27.2348 65.3732 30.2552 64.271 32.1823 62.0929C35.4466 62.6083 38.7735 62.5896 42.0318 62.0374C43.958 64.2517 46.9972 65.3732 51.0789 65.3732C53.5442 65.3732 56.3921 64.9602 59.5404 64.1474C59.5596 64.1417 61.739 63.5409 64.119 62.601C67.9488 61.0905 69.9185 59.6825 70.7137 57.8954C71.237 56.7165 71.1991 55.4506 70.606 54.3305C70.5514 54.2256 70.4925 54.1245 70.4293 54.0273L70.4281 54.0262ZM30.8183 58.6824C30.6524 58.9717 30.4745 59.2539 30.2849 59.5284C29.7861 60.2552 29.1302 60.8102 28.3693 61.2232C26.9136 62.0127 25.0719 62.289 23.2017 62.289C20.2458 62.289 17.214 61.6003 15.5174 61.1618C15.434 61.1402 5.10739 58.2364 6.41342 55.7635C6.63328 55.348 6.99591 55.182 7.45162 55.182C9.29274 55.182 12.6441 57.9107 14.0851 57.9107C14.4067 57.9107 14.6339 57.7743 14.7265 57.4418C15.3404 55.2494 5.39549 54.3283 6.23325 51.1531C6.38115 50.5915 6.78176 50.3636 7.34569 50.3636C9.77958 50.3633 15.243 54.6241 16.3857 54.6241C16.4736 54.6241 16.5365 54.5986 16.5704 54.5451L16.5853 54.5207C17.1212 53.6393 16.8137 52.9985 13.1397 50.7583L12.7868 50.5446C8.74423 48.1086 5.90488 46.6444 7.51986 44.8957C7.70546 44.6936 7.96815 44.6041 8.28795 44.6041C8.66771 44.6041 9.12656 44.7305 9.63196 44.9423C11.7672 45.8384 14.725 48.2829 15.964 49.3475C16.1583 49.5155 16.3514 49.6851 16.543 49.8562C16.543 49.8562 18.1083 51.4762 19.0549 51.4762C19.2727 51.4762 19.4575 51.3913 19.5828 51.1798C20.2541 50.0535 13.3502 44.8454 12.9599 42.6973C12.696 41.2413 13.1449 40.5038 13.9758 40.5038C14.3707 40.5038 14.8524 40.6709 15.3846 41.0068C17.035 42.0499 20.2224 47.5002 21.39 49.6201C21.7811 50.3306 22.4487 50.631 23.0503 50.631C24.2439 50.631 25.177 49.4501 23.1597 47.9492C20.1273 45.6909 21.1915 42.0001 22.6386 41.7739C22.7005 41.7644 22.7626 41.7595 22.8251 41.7591C24.1411 41.7591 24.7216 44.0166 24.7216 44.0166C24.7216 44.0166 26.4228 48.2701 29.3464 51.1775C31.999 53.8161 32.369 55.9821 30.824 58.6812L30.8183 58.6824ZM40.27 59.1806L40.1187 59.1985L39.8597 59.228C39.7238 59.2421 39.5877 59.2553 39.4514 59.2678L39.3178 59.28L39.1964 59.2903L39.0237 59.3042C38.9601 59.3089 38.8965 59.3134 38.8329 59.3176L38.6428 59.3303L38.6008 59.3326L38.4512 59.3414L38.3875 59.3448L38.2102 59.3534L38.0038 59.3619L37.8164 59.3684L37.6914 59.3718H37.6286C37.5892 59.3718 37.5506 59.3741 37.5115 59.3747H37.4495C37.4107 59.3743 37.3717 59.375 37.3325 59.3767L37.174 59.3784H36.9518C36.7777 59.3784 36.6039 59.3767 36.4305 59.3733L36.29 59.3704C36.25 59.3704 36.21 59.3681 36.1701 59.367L36.0216 59.3625L35.8363 59.3554L35.6698 59.3483L35.6267 59.3466L35.4679 59.338C35.424 59.3358 35.3801 59.3333 35.3363 59.3306L35.2335 59.3247C35.1047 59.3164 34.9759 59.3074 34.8472 59.2974L34.7121 59.2869L34.5419 59.2724L34.3426 59.2539C34.2315 59.2437 34.1204 59.2323 34.0094 59.2198H34.0043C35.6261 55.6166 34.8061 52.2533 31.5281 48.9959C29.3786 46.8595 27.947 43.704 27.6523 43.0114C27.0518 40.9608 25.4622 38.68 22.8219 38.68C22.5984 38.6806 22.3763 38.6982 22.1555 38.7329C20.9991 38.9136 19.9883 39.5764 19.2667 40.5734C18.4878 39.6088 17.73 38.8417 17.045 38.4083C16.0122 37.7569 14.9817 37.4261 13.9772 37.4261C12.7243 37.4261 11.6039 37.9382 10.8229 38.8676L10.8035 38.8912L10.7595 38.707L10.7578 38.6993C10.6093 38.0669 10.4846 37.4292 10.3838 36.7875C10.3838 36.7826 10.3838 36.7787 10.3815 36.7744L10.3595 36.6292L10.3247 36.3933C10.3153 36.3277 10.3064 36.2625 10.2978 36.1977C10.2891 36.1326 10.2805 36.0673 10.2721 36.0019C10.2557 35.8745 10.2404 35.7468 10.2264 35.6191L10.2244 35.6032C10.1924 35.3164 10.1649 35.0291 10.1419 34.7414L10.1296 34.5752C10.1258 34.5297 10.1226 34.4838 10.1199 34.4373C10.1199 34.4268 10.1185 34.4157 10.1179 34.4061L10.1062 34.2213C10.102 34.1547 10.0983 34.088 10.0951 34.0213L10.0851 33.8209L10.078 33.6461L10.076 33.593L10.0705 33.431L10.0668 33.2943C10.0668 33.2394 10.064 33.1843 10.0631 33.1294L10.0603 32.9566C10.0597 32.8992 10.0603 32.8418 10.0588 32.7844C10.0571 32.7264 10.0588 32.6687 10.0588 32.611C10.0588 17.8259 22.1015 5.83911 36.959 5.83911C51.8165 5.83911 63.8591 17.8259 63.8591 32.6107V32.9566C63.8589 33.0146 63.858 33.0722 63.8563 33.1294C63.8563 33.1777 63.8543 33.2246 63.8529 33.2727C63.8527 33.3155 63.8515 33.3576 63.8494 33.3991C63.8494 33.4531 63.8463 33.5068 63.8446 33.5608V33.5654L63.83 33.9172L63.8277 33.9562L63.8186 34.1313L63.81 34.2702C63.7901 34.5994 63.7643 34.9282 63.7326 35.2564V35.2607C63.7269 35.3225 63.7207 35.384 63.7138 35.4454L63.6664 35.8746L63.6481 36.0187L63.6259 36.1875C63.6179 36.2493 63.6095 36.3109 63.6007 36.3722L63.5707 36.5783L63.5459 36.7403L63.5168 36.9236C63.5071 36.9848 63.4966 37.0458 63.4854 37.1066C63.4731 37.1675 63.464 37.2283 63.4534 37.2894C63.4323 37.4108 63.4099 37.5321 63.3863 37.6532C63.3391 37.8946 63.2895 38.1353 63.2375 38.3753C63.2244 38.435 63.2109 38.4949 63.197 38.555C62.44 37.8226 61.4378 37.4238 60.3316 37.4238C59.3283 37.4238 58.2969 37.7541 57.2644 38.4058C56.5792 38.8389 55.8219 39.6063 55.0421 40.5711C54.3197 39.5736 53.3089 38.9114 52.1537 38.73C51.9332 38.6953 51.7104 38.6779 51.4872 38.6777C48.8469 38.6777 47.2565 40.9574 46.6566 43.0091C46.3588 43.7017 44.9285 46.8561 42.7773 48.9974C39.5022 52.2467 38.6742 55.5967 40.2723 59.1823L40.27 59.1806ZM68.0396 51.9702L68.0291 52.0015C68.0218 52.0215 68.0142 52.0415 68.0062 52.0614C67.9628 52.1631 67.9102 52.2607 67.8492 52.353C67.79 52.4411 67.725 52.5249 67.6542 52.6043C67.6379 52.6225 67.6222 52.6406 67.6039 52.6585C67.5788 52.6856 67.5529 52.7124 67.5262 52.7387C67.048 53.2105 66.3196 53.6234 65.4961 54.0029C65.403 54.0449 65.3085 54.087 65.2126 54.129L65.1175 54.1708C64.9885 54.2272 64.8588 54.2822 64.7286 54.3357L64.5304 54.4172C64.0673 54.6068 63.5927 54.7876 63.1296 54.9663L62.932 55.0425L62.7361 55.1187C62.6063 55.1692 62.4778 55.2198 62.3507 55.2704L62.1622 55.346L61.9775 55.4216L61.8861 55.4594C61.8259 55.4846 61.7664 55.5098 61.7074 55.535C60.3454 56.1165 59.3657 56.7082 59.5716 57.4426C59.5773 57.4635 59.5836 57.4834 59.5907 57.5023C59.6092 57.5569 59.6341 57.6082 59.6655 57.6564C59.6842 57.6855 59.7054 57.7125 59.7292 57.7374C59.971 57.9875 60.4116 57.9477 60.967 57.7493C61.0123 57.7332 61.0582 57.7159 61.1049 57.6973C61.1365 57.6852 61.1683 57.6727 61.2002 57.6601L61.2482 57.6399C61.3753 57.5859 61.5098 57.5262 61.6474 57.4608C61.6817 57.4452 61.7168 57.4296 61.7513 57.4114C62.4303 57.0808 63.2001 56.6355 63.9642 56.2302C64.0815 56.1675 64.1985 56.1063 64.3154 56.0466C64.5063 55.9481 64.699 55.8533 64.8936 55.7624C65.6169 55.4236 66.2967 55.1835 66.8438 55.1835C67.0999 55.1835 67.3267 55.2358 67.5151 55.356L67.5465 55.3767C67.6649 55.4594 67.7645 55.566 67.8386 55.6896C67.8538 55.7141 67.8681 55.7391 67.8815 55.7647C68.1516 56.2748 67.9254 56.8037 67.3966 57.3221C66.8886 57.8195 66.0986 58.3072 65.2003 58.7591C65.1339 58.7928 65.0668 58.826 64.9993 58.8586C62.3267 60.1651 58.8272 61.149 58.7775 61.1612C57.8446 61.4019 56.5109 61.7183 55.0082 61.9545L54.7854 61.9886L54.7495 61.9942C54.4087 62.0448 54.067 62.0896 53.7244 62.1287L53.693 62.1318C53.0613 62.2047 52.4269 62.2526 51.7913 62.2753H51.7816C51.5517 62.2837 51.3217 62.2877 51.0918 62.2875H50.8271C50.4764 62.2827 50.126 62.267 49.7763 62.2404C49.7683 62.2407 49.7599 62.2401 49.7512 62.2384C49.411 62.2115 49.0719 62.1716 48.7347 62.119L48.4777 62.0761C48.4385 62.0691 48.3996 62.0618 48.3609 62.0542L48.3518 62.0522C48.2287 62.0289 48.1061 62.0034 47.984 61.9755C47.9135 61.9593 47.8424 61.9434 47.7727 61.9249L47.7308 61.9138C47.6961 61.9051 47.6618 61.8962 47.628 61.8871L47.6088 61.882L47.4992 61.8507L47.3804 61.816L47.3661 61.8118L47.2628 61.7805L47.1465 61.7433C47.1148 61.7323 47.0829 61.7217 47.0509 61.7115L46.9809 61.687C46.9136 61.6635 46.8466 61.639 46.7802 61.6134L46.7171 61.5892L46.6649 61.5682C46.5643 61.528 46.4644 61.4859 46.365 61.4417L46.2994 61.4105L46.2882 61.4054C46.2648 61.3944 46.2415 61.3838 46.2183 61.3735C46.1726 61.3516 46.1272 61.3292 46.0821 61.3062L46.0687 61.2994L46.003 61.2652C45.8869 61.205 45.7731 61.1407 45.6618 61.0723L45.6007 61.0353C45.5693 61.016 45.5404 60.9967 45.5102 60.9773L45.4308 60.9248C45.4019 60.9057 45.3733 60.8861 45.3451 60.8659L45.294 60.8298C45.2402 60.7915 45.1872 60.7521 45.135 60.7116C45.1074 60.69 45.08 60.6689 45.0527 60.6482C44.9922 60.5999 44.9327 60.5502 44.8743 60.499L44.8717 60.4967C44.8146 60.4475 44.7589 60.3969 44.7047 60.345L44.7018 60.3413C44.6733 60.3148 44.6453 60.2876 44.6179 60.2597C44.5905 60.2319 44.5632 60.2041 44.5362 60.1764C44.5092 60.1482 44.4825 60.1194 44.4562 60.09C44.4307 60.0626 44.4056 60.0347 44.3809 60.0065L44.3723 59.9968C44.2442 59.8486 44.1243 59.6936 44.0131 59.5324L43.9691 59.4676C43.94 59.4248 43.9113 59.3819 43.8829 59.3389L43.7992 59.2104C43.7295 59.1031 43.6618 58.9947 43.5959 58.885C43.5727 58.8463 43.5499 58.8079 43.5274 58.7696C43.5152 58.7488 43.5033 58.7277 43.4917 58.7065C43.4803 58.6843 43.466 58.6622 43.4537 58.64L43.4338 58.605L43.4215 58.582C43.3972 58.5398 43.3738 58.497 43.3512 58.4538C43.3411 58.4349 43.3307 58.416 43.3198 58.397L43.2876 58.3365L43.2561 58.2762L43.195 58.1534L43.1659 58.0932C43.1452 58.0496 43.125 58.0066 43.1054 57.9642C43.0972 57.9467 43.0895 57.9294 43.0823 57.9121C43.0548 57.8531 43.0288 57.7934 43.0043 57.7331C42.9877 57.6933 42.9726 57.6535 42.9561 57.614C42.9104 57.4975 42.8677 57.3797 42.8281 57.2607C42.8161 57.2257 42.8049 57.1904 42.7944 57.155C42.7689 57.0749 42.7458 56.994 42.7251 56.9123C42.6999 56.8173 42.6778 56.7214 42.6588 56.625C42.6466 56.5681 42.6362 56.5108 42.6274 56.453C42.6177 56.3962 42.6094 56.3394 42.6026 56.2828C42.588 56.1702 42.5777 56.0571 42.5717 55.9437C42.5717 55.925 42.57 55.9059 42.5697 55.8872C42.5678 55.8498 42.5668 55.8124 42.5666 55.7749C42.5466 54.2657 43.3144 52.814 44.9551 51.1821C47.8775 48.2758 49.5799 44.0212 49.5799 44.0212C49.5799 44.0212 49.6256 43.8427 49.7212 43.5863C49.753 43.5011 49.7864 43.4165 49.8214 43.3325C49.8614 43.2378 49.9045 43.1445 49.9508 43.0526L49.9642 43.0256C50.0234 42.9083 50.0879 42.794 50.1578 42.6828C50.1738 42.6572 50.1892 42.6314 50.2078 42.6061C50.2595 42.529 50.3145 42.4542 50.3725 42.3818C50.4172 42.3263 50.4646 42.273 50.5147 42.2218C50.6843 42.0482 50.8779 41.9061 51.0969 41.8302L51.1246 41.8214C51.1429 41.8155 51.1613 41.8098 51.18 41.8043C51.2021 41.7986 51.224 41.7934 51.2457 41.7887L51.256 41.787C51.3022 41.7779 51.3489 41.7716 51.3959 41.7682H51.4001C51.4247 41.7682 51.4493 41.7657 51.4744 41.7657C51.5372 41.7662 51.5997 41.7713 51.662 41.7807C51.9252 41.8219 52.1759 41.9783 52.3921 42.219L52.4209 42.2531C52.4914 42.3351 52.5551 42.4223 52.6122 42.5146C52.6545 42.5828 52.6947 42.6544 52.7327 42.7294C52.7479 42.7613 52.7624 42.7902 52.777 42.8215C52.7842 42.8372 52.7913 42.8531 52.7981 42.869C52.8122 42.9004 52.8256 42.9326 52.8384 42.9656C52.9126 43.1549 52.97 43.3504 53.0106 43.5497C53.0536 43.7651 53.0785 43.9827 53.0854 44.2025C53.0882 44.2989 53.0882 44.3965 53.0854 44.4952C53.0838 44.5327 53.0818 44.5704 53.0791 44.6083C53.0499 45.0284 52.9579 45.4419 52.8061 45.835C52.791 45.8739 52.7741 45.9134 52.7587 45.9529C52.6826 46.1345 52.594 46.3107 52.4935 46.4801C52.4364 46.5768 52.3747 46.6728 52.3084 46.7683L52.2682 46.8254C52.1114 47.043 51.9367 47.2472 51.7459 47.4359C51.5575 47.6235 51.3565 47.7968 51.1429 47.9557C50.929 48.1129 50.7285 48.2872 50.5433 48.477C50.0096 49.0346 49.8854 49.526 50.0053 49.8986C50.0196 49.9408 50.0363 49.982 50.0556 50.0219C50.0998 50.1086 50.1572 50.1879 50.2263 50.2573L50.2449 50.276C50.2645 50.295 50.2849 50.313 50.306 50.33L50.3274 50.3474C50.379 50.3869 50.4337 50.4222 50.491 50.4531C50.5073 50.4616 50.5224 50.4707 50.5413 50.4792C50.6199 50.5179 50.7015 50.5491 50.7863 50.573L50.8097 50.5787L50.8411 50.5872L50.8691 50.5941L50.8985 50.6003L50.9279 50.6063L50.9559 50.6108C50.977 50.6146 50.998 50.6179 51.019 50.6208L51.0398 50.6236L51.0764 50.6276L51.0992 50.6296L51.1363 50.6324H51.1583L51.1971 50.6341H51.3205L51.3556 50.6324L51.3962 50.6299L51.4453 50.6253L51.4915 50.6196C51.5018 50.6196 51.5124 50.6168 51.5229 50.6151C51.7194 50.5867 51.9097 50.5261 52.0863 50.4358C52.2355 50.3605 52.3738 50.2656 52.4975 50.1535L52.5477 50.1061C52.5559 50.0985 52.5637 50.0907 52.5711 50.0828C52.6203 50.0341 52.6664 49.9826 52.7093 49.9284C52.7852 49.8332 52.8527 49.7316 52.9112 49.6249C53.6055 48.3681 54.3335 47.13 55.0944 45.912L55.1986 45.7454L55.3043 45.5789C55.3572 45.4946 55.41 45.4112 55.4627 45.3288L55.5164 45.2461L55.6232 45.0804C55.7665 44.8597 55.9105 44.6412 56.0552 44.425L56.1634 44.2639C56.375 43.9514 56.5911 43.642 56.8119 43.3359L56.9189 43.1896C57.1521 42.8688 57.3951 42.5553 57.6476 42.2494L57.7481 42.13C57.7644 42.1101 57.7795 42.0902 57.7978 42.0709L57.8963 41.9575C57.9126 41.939 57.928 41.9206 57.9452 41.9027L58.0402 41.7955L58.0882 41.7438C58.1345 41.6941 58.1813 41.6449 58.2287 41.596C58.2607 41.5647 58.2901 41.5329 58.3209 41.5036C58.5008 41.3203 58.6994 41.1561 58.9134 41.0137L58.9628 40.9824L59.0128 40.9506C59.0447 40.9307 59.0771 40.9117 59.1099 40.8937C59.9493 40.4199 60.644 40.385 61.0438 40.7829C61.2862 41.0239 61.4198 41.4235 61.413 41.9794C61.4133 42.0036 61.4126 42.0285 61.4107 42.0539V42.0814C61.4103 42.1066 61.409 42.1322 61.4067 42.1582C61.4067 42.1894 61.403 42.2213 61.3998 42.2525C61.3964 42.2844 61.395 42.3085 61.3918 42.3364C61.3915 42.3445 61.3905 42.3527 61.389 42.3608L61.3804 42.4353C61.3804 42.4429 61.3804 42.4503 61.377 42.458C61.3734 42.4919 61.3685 42.5255 61.3624 42.5586C61.3585 42.5895 61.3535 42.6202 61.3476 42.6507L61.3387 42.7036C61.3294 42.7537 61.3174 42.8033 61.3027 42.8522C61.2755 42.9433 61.2422 43.0324 61.2028 43.1194C61.1857 43.1576 61.1678 43.1952 61.1491 43.2322C61.1107 43.3087 61.0676 43.3876 61.0198 43.4687C60.9962 43.5088 60.9714 43.5497 60.9455 43.5911L60.9056 43.6542C60.8652 43.7173 60.823 43.7812 60.7788 43.8458C60.735 43.9106 60.6877 43.9764 60.6369 44.0433C60.5712 44.1326 60.5019 44.2231 60.429 44.315L60.3736 44.3847C60.2171 44.5786 60.0568 44.7694 59.8928 44.9571L59.7623 45.1037L59.6961 45.1776C59.6056 45.2784 59.5146 45.3784 59.4231 45.4777L59.3528 45.5533C59.3063 45.6036 59.2578 45.6545 59.2112 45.7048C59.1634 45.756 59.1154 45.807 59.067 45.858L58.9208 46.0112L58.7729 46.1647C58.7234 46.2164 58.6737 46.2679 58.6239 46.3193L58.3223 46.6285C56.8833 48.0978 55.3665 49.5621 54.8534 50.4755C54.8191 50.5352 54.7881 50.5963 54.7603 50.6589C54.6875 50.8251 54.6572 50.9669 54.6775 51.0818C54.6845 51.1198 54.6979 51.1556 54.7175 51.1889C54.7466 51.2389 54.7815 51.2845 54.8223 51.3256C54.8407 51.3442 54.8605 51.3612 54.8817 51.3768C54.9873 51.4518 55.1149 51.4904 55.2443 51.4865H55.2851L55.3265 51.4836L55.3685 51.4785L55.4028 51.4737C55.4073 51.4733 55.412 51.4724 55.4168 51.4711L55.4482 51.4652L55.4567 51.4632L55.4916 51.4555L55.5412 51.443L55.5855 51.4299C55.6144 51.421 55.6438 51.4111 55.6737 51.4001C55.7379 51.3773 55.8007 51.3514 55.8622 51.3222C55.8778 51.315 55.8934 51.3074 55.909 51.2995L55.9561 51.2762C56.0176 51.2451 56.0793 51.2114 56.1412 51.175C56.1903 51.1464 56.2394 51.1164 56.2885 51.0852L56.3359 51.0536C56.3517 51.0438 56.3674 51.0332 56.383 51.0218L56.4304 50.9905L56.4552 50.9729L56.5232 50.9257C56.5869 50.882 56.646 50.8371 56.7065 50.7916L56.7119 50.7876L56.807 50.714C56.9372 50.6117 57.0611 50.5085 57.1728 50.4113L57.2473 50.3459L57.2545 50.3397L57.2933 50.3056C57.3847 50.2237 57.4663 50.1476 57.5346 50.0842L57.5623 50.0575L57.6294 49.9941L57.6693 49.9552L57.6833 49.9409L57.687 49.9372L57.7553 49.869L57.7581 49.8662L57.771 49.8548C57.7748 49.8507 57.7798 49.8461 57.7861 49.8412L57.7913 49.8366L57.8047 49.8244L57.8766 49.7613L57.9172 49.7249C57.9374 49.7079 57.9585 49.6888 57.9806 49.6675L58.0291 49.6252C58.0377 49.618 58.0463 49.6104 58.0551 49.6024L58.1059 49.5581L58.1807 49.493L58.2201 49.4589C58.3746 49.3251 58.5628 49.1633 58.7781 48.9815L58.8666 48.9076L59.0128 48.7853L59.1618 48.6611C59.3571 48.5 59.5673 48.3286 59.7894 48.1507L59.935 48.0342C60.0597 47.9357 60.1869 47.8356 60.3165 47.7341C60.3683 47.6933 60.4211 47.6529 60.475 47.6127C60.9134 47.2754 61.3586 46.9469 61.8104 46.6276L61.9469 46.5333C62.0421 46.4675 62.1373 46.4025 62.2324 46.3383L62.319 46.28C62.4895 46.1654 62.6617 46.0534 62.8355 45.9441L62.9217 45.8901L63.0074 45.837C63.093 45.7841 63.1781 45.7323 63.2627 45.6815L63.3475 45.6315L63.5176 45.5329C63.5732 45.5007 63.6287 45.4691 63.6841 45.4382L63.7175 45.4195L63.8494 45.3478C63.9043 45.3181 63.9589 45.2893 64.0133 45.2614L64.095 45.2199L64.1738 45.1802C64.3543 45.0898 64.5378 45.0064 64.7243 44.9301C64.75 44.9196 64.7753 44.909 64.8003 44.8982C64.8503 44.8774 64.9 44.8584 64.9493 44.8414C64.9988 44.8247 65.0474 44.8077 65.0952 44.7905C65.1386 44.7763 65.181 44.7627 65.2223 44.7499L65.236 44.7456C65.2583 44.739 65.2803 44.7328 65.3022 44.7271L65.3085 44.7251C65.3532 44.7126 65.3981 44.701 65.443 44.6902H65.4467C65.5129 44.6743 65.5777 44.661 65.6409 44.6504C65.6624 44.6466 65.6835 44.6433 65.7043 44.6404C65.7657 44.6314 65.8274 44.6247 65.8893 44.6205C65.9283 44.6179 65.9674 44.6167 66.0066 44.6169H66.0366C66.076 44.6169 66.1147 44.6189 66.1525 44.6231C66.1697 44.6231 66.1874 44.6262 66.2042 44.6288H66.2114C66.2285 44.6307 66.2456 44.6334 66.2628 44.637C66.2793 44.6404 66.2962 44.6427 66.3127 44.6467H66.3184C66.3347 44.6504 66.3498 44.6549 66.367 44.6595C66.5026 44.6959 66.6268 44.7646 66.7305 44.8593L66.7396 44.8684L66.7576 44.886L66.7756 44.9048C66.9177 45.0541 67.0354 45.2247 67.1242 45.4104L67.1382 45.4416C67.1687 45.5125 67.1922 45.5854 67.2087 45.6605C67.255 45.8691 67.2424 46.0868 67.1725 46.2889C67.1426 46.377 67.1058 46.4621 67.062 46.5444L67.0328 46.5967C66.9222 46.7814 66.7914 46.9534 66.6428 47.1097L66.6108 47.1432C66.5408 47.2171 66.4682 47.2885 66.3932 47.3575C66.3693 47.3798 66.3449 47.4021 66.3202 47.4243L66.2825 47.4584C66.2042 47.5272 66.1246 47.5944 66.0435 47.6602C66.0292 47.6713 66.015 47.6828 66.0009 47.6946C65.9448 47.74 65.8864 47.7857 65.8259 47.8315C65.618 47.9898 65.4061 48.1427 65.1903 48.29C65.0633 48.3762 64.932 48.4636 64.7963 48.5523C64.5437 48.7171 64.289 48.8788 64.0322 49.0372C63.9583 49.0828 63.8834 49.1287 63.8075 49.1747C63.1093 49.6024 62.3352 50.0595 61.5098 50.5565L61.2962 50.6859C61.062 50.828 60.8412 50.9634 60.6337 51.0923L60.529 51.1582L60.3311 51.2847C60.2527 51.3339 60.1763 51.3826 60.1021 51.4308C60.0461 51.4666 59.9913 51.5019 59.9376 51.5368L59.832 51.6061C59.7806 51.6395 59.7294 51.6733 59.6783 51.7076L59.6287 51.7388C59.5761 51.7737 59.525 51.8081 59.4753 51.842L59.394 51.8972L59.2986 51.9634L59.2104 52.0245C59.0714 52.1215 58.9339 52.2206 58.7978 52.3218L58.7501 52.3579C58.6966 52.3984 58.6448 52.4384 58.5947 52.4778L58.5294 52.5295C58.4193 52.6176 58.3194 52.7019 58.2295 52.7825L58.1856 52.8228C58.1601 52.8457 58.1355 52.8686 58.1119 52.8913L58.0634 52.9382L58.0405 52.9609C57.9895 53.0115 57.94 53.0635 57.892 53.1167L57.8689 53.1437C57.8202 53.1993 57.7743 53.2573 57.7313 53.3173L57.7133 53.3429C57.6671 53.4102 57.6264 53.4811 57.5917 53.5549L57.5797 53.5805L57.5722 53.5987L57.566 53.6141L57.558 53.6357C57.5554 53.643 57.5505 53.6561 57.5477 53.6675C57.5336 53.7098 57.5228 53.7531 57.5154 53.7971L57.5117 53.821L57.5089 53.8423L57.5071 53.8633V53.9742C57.5068 53.9834 57.5075 53.9929 57.5094 54.0026C57.5094 54.0083 57.51 54.0139 57.5111 54.0196C57.5111 54.0284 57.5137 54.0378 57.5146 54.0472L57.5214 54.0861V54.0878C57.5237 54.1003 57.5264 54.1127 57.5294 54.1248C57.5327 54.1377 57.5362 54.1508 57.54 54.1643C57.5514 54.2043 57.5651 54.2436 57.5811 54.2822C57.5811 54.2851 57.5834 54.2882 57.5845 54.291L57.5974 54.32C57.6147 54.3604 57.6341 54.3997 57.6556 54.438L57.6779 54.4778L57.7013 54.5181L57.7259 54.5585L57.7401 54.5772L57.7481 54.5858L57.7567 54.5934L57.7664 54.6008C57.7729 54.6054 57.7795 54.6095 57.7864 54.6133C57.7936 54.6166 57.8012 54.6197 57.8092 54.6227C57.8178 54.6256 57.8264 54.628 57.8349 54.6301C58.0397 54.6761 58.4603 54.5073 59.0196 54.2135L59.1201 54.1603L59.29 54.0682L59.3734 54.0222C59.4322 53.9903 59.493 53.9551 59.5544 53.9199L59.6669 53.8568C60.4065 53.4333 61.2896 52.8888 62.2025 52.3576C62.2881 52.3077 62.3738 52.2582 62.4595 52.2089L62.6319 52.0992C62.7181 52.05 62.8043 52.0013 62.8903 51.9531C63.2574 51.7454 63.6292 51.5458 64.0053 51.3546L64.1738 51.2693C64.2861 51.2144 64.3971 51.1608 64.5067 51.1085C64.7191 51.0082 64.9339 50.913 65.1509 50.8228L65.27 50.7748L65.2842 50.7691C65.9141 50.5207 66.4852 50.3673 66.9472 50.3673C67.0473 50.3665 67.1469 50.3745 67.2459 50.3914H67.2487C67.2804 50.3971 67.3092 50.4036 67.3384 50.411H67.3438C67.3864 50.4213 67.428 50.4344 67.4686 50.4505C67.5009 50.4623 67.5321 50.4762 67.5622 50.4923C67.7059 50.5647 67.8271 50.6748 67.9126 50.8106C67.944 50.858 67.9707 50.9079 67.9928 50.9604C68.0059 50.9901 68.0181 51.0217 68.0294 51.055C68.0408 51.0891 68.0508 51.1215 68.0608 51.1565C68.1362 51.424 68.1288 51.7078 68.0396 51.971V51.9702Z" fill="#FF9D00"/>
</g>
<path d="M63.8264 32.7728V32.5994C63.8264 17.8148 51.7874 5.82776 36.9299 5.82776C22.0765 5.82776 10.0298 17.8148 10.0298 32.5997L10.0292 32.6576V32.7728C10.0311 32.8302 10.0319 32.8878 10.0315 32.9456L10.0335 33.0726L10.0341 33.1186L10.0361 33.1814C10.037 33.2154 10.0376 33.2492 10.0378 33.2829L10.0412 33.4202L10.0469 33.5816L10.0486 33.6348L10.0558 33.8019V33.8095L10.0658 34.0048V34.0099C10.0694 34.0768 10.0732 34.1434 10.0772 34.2097C10.0808 34.2715 10.0846 34.3331 10.0886 34.3944L10.09 34.4058C10.0931 34.4581 10.0966 34.5108 10.1006 34.5638L10.1017 34.5775C10.1054 34.6286 10.1092 34.6795 10.1132 34.7301L10.114 34.74L10.1212 34.8284C10.1423 35.0831 10.1671 35.3375 10.1957 35.5918L10.1974 35.6077L10.2188 35.7942L10.2434 35.9909C10.2695 36.2002 10.2985 36.4092 10.3302 36.6178L10.3319 36.6275C10.3585 36.805 10.3872 36.9822 10.4178 37.1589C10.5061 37.6717 10.6099 38.1813 10.7291 38.688L10.7305 38.6962L10.7419 38.744L10.7745 38.8798L10.7942 38.8562C11.5748 37.9269 12.695 37.4147 13.9485 37.4147C14.9527 37.4147 15.9835 37.7453 17.0159 38.397C17.7012 38.8301 18.4585 39.5975 19.238 40.5621C19.9589 39.5648 20.97 38.9023 22.1261 38.7215C22.3467 38.6867 22.5696 38.6692 22.7929 38.6689C25.4323 38.6689 27.0236 40.9492 27.6235 43.0003C27.9196 43.6932 29.3502 46.8473 31.5062 48.9849C34.7841 52.2448 35.6056 55.6089 33.9824 59.2087H33.9875C34.0983 59.2209 34.2095 59.232 34.321 59.2423C34.3874 59.2489 34.4538 59.2551 34.52 59.2607L34.5434 59.2627C34.5922 59.2673 34.641 59.2714 34.6899 59.2752L34.825 59.286C34.9533 59.2959 35.0822 59.305 35.2119 59.3133L35.3141 59.3193L35.3952 59.3238L35.446 59.3267L35.6042 59.3352L35.6476 59.3369L35.8144 59.344L35.9994 59.3511L36.1484 59.3554L36.1733 59.3565C36.2047 59.3577 36.2363 59.3584 36.2681 59.3588L36.3018 59.3596C36.5112 59.3646 36.7204 59.367 36.9297 59.367H37.1518L37.3108 59.3653C37.3497 59.3634 37.3886 59.3627 37.4276 59.3631H37.4893L37.543 59.3622C37.5639 59.3612 37.585 59.3608 37.6061 59.3608H37.6698L37.7942 59.3571L37.9816 59.3508L38.1883 59.342L38.3656 59.3335L38.4293 59.3298L38.5235 59.3247L38.5789 59.3216L38.6206 59.3187L38.811 59.3062C38.8746 59.3024 38.9382 59.2979 39.0018 59.2926L39.1742 59.2789L39.2959 59.2687L39.4289 59.2568C39.5658 59.2441 39.702 59.2306 39.8375 59.2164C39.9239 59.2069 40.0102 59.1972 40.0962 59.1871L40.2478 59.1692C38.6511 55.5834 39.4778 52.2345 42.7423 48.9877C44.8938 46.8476 46.3234 43.6921 46.6218 42.9994C47.2226 40.9486 48.811 38.6681 51.4522 38.6681C51.6759 38.6685 51.8981 38.6861 52.1189 38.721C53.2742 38.9017 54.2853 39.5645 55.0077 40.5615C55.7872 39.5966 56.5444 38.8292 57.2294 38.3961C58.2619 37.7444 59.2932 37.4142 60.2966 37.4142C61.4028 37.4142 62.4053 37.8132 63.1625 38.5453C63.204 38.361 63.244 38.1762 63.2824 37.9911C63.3058 37.8757 63.3289 37.76 63.3515 37.6438C63.3795 37.5009 63.4056 37.3577 63.4298 37.2141C63.436 37.1752 63.4429 37.1363 63.4503 37.0973C63.4617 37.0365 63.4722 36.9754 63.4817 36.9142L63.4857 36.8909L63.5109 36.7309L63.5357 36.5689L63.5363 36.5669L63.5657 36.3629C63.5729 36.3113 63.58 36.2596 63.5868 36.2077L63.5911 36.1779L63.6131 36.009L63.6314 35.8652C63.6424 35.7705 63.6531 35.6758 63.6633 35.581C63.6679 35.5431 63.672 35.505 63.6756 35.4668L63.6793 35.4361C63.6858 35.373 63.6919 35.3099 63.6976 35.2468L63.7119 35.0999C63.7412 34.7743 63.7651 34.4484 63.7835 34.1219V34.1196L63.7933 33.9465L63.795 33.9079L63.8021 33.7436C63.8048 33.6817 63.8072 33.6191 63.8095 33.556V33.5512L63.8112 33.5057C63.8132 33.467 63.8142 33.4283 63.8144 33.3895L63.8152 33.3736C63.817 33.3374 63.8179 33.3005 63.8181 33.263L63.819 33.2312C63.8203 33.1942 63.821 33.1573 63.8212 33.1203L63.8218 33.0891C63.8231 33.0417 63.8239 32.9943 63.8241 32.947L63.8264 32.7728ZM30.261 59.5196C32.3908 56.4101 32.2398 54.0756 29.317 51.1682C26.3943 48.2607 24.6925 44.007 24.6925 44.007C24.6925 44.007 24.0575 41.5369 22.6093 41.764C21.1613 41.9908 20.0989 45.6821 23.1307 47.9396C26.1624 50.1987 22.5276 51.7301 21.3606 49.6107C20.1934 47.4899 17.0091 42.0394 15.3553 40.9975C13.7035 39.955 12.5416 40.5393 12.9311 42.6879C13.1247 43.7546 14.9233 45.5747 16.6048 47.2734C18.3097 48.9994 19.893 50.6015 19.5549 51.1667C18.883 52.2928 16.5168 49.8435 16.5168 49.8435C16.5168 49.8435 9.10579 43.1313 7.49424 44.88C6.00747 46.4921 8.3003 47.8625 11.8352 49.9742C12.136 50.154 12.4449 50.3393 12.7621 50.5301C16.8049 52.9664 17.1207 53.609 16.5457 54.5289C16.3338 54.87 14.9804 54.0611 13.316 53.0661C10.4781 51.3705 6.73558 49.1341 6.20677 51.1361C5.74906 52.868 8.50189 53.9293 10.998 54.8913C13.0781 55.6933 14.9804 56.4266 14.7 57.4222C14.4102 58.4541 12.8383 57.5936 11.1188 56.6525C9.18974 55.5959 7.07622 54.438 6.38409 55.7445C5.07634 58.214 15.403 61.1215 15.488 61.1425C18.8242 62.0039 27.2966 63.8291 30.2601 59.5094L30.261 59.5196ZM43.9823 59.5196C41.8523 56.4101 42.0036 54.0756 44.9263 51.1682C47.849 48.2607 49.5508 44.007 49.5508 44.007C49.5508 44.007 50.1856 41.5369 51.6335 41.764C53.0817 41.9908 54.1445 45.6821 51.1121 47.9396C48.08 50.197 51.7152 51.7301 52.8824 49.6107C54.0497 47.4899 57.234 42.0394 58.8844 40.9975C60.5347 39.9556 61.6983 40.5393 61.3091 42.6879C61.1155 43.7546 59.3167 45.5749 57.6354 47.2771C55.9308 49.0022 54.3475 50.6046 54.6859 51.1702C55.3572 52.2965 57.7257 49.8457 57.7257 49.8457C57.7257 49.8457 65.1364 43.1333 66.748 44.882C68.2347 46.4941 65.9416 47.8648 62.407 49.9765C62.0977 50.1609 61.7889 50.346 61.4804 50.5318C57.4378 52.9675 57.1218 53.6107 57.6971 54.5309C57.9087 54.8714 59.2621 54.0628 60.9265 53.0684C63.7644 51.3725 67.5066 49.1364 68.0357 51.1378C68.4931 52.8697 65.74 53.9315 63.2442 54.893C61.1641 55.6951 59.2618 56.428 59.5422 57.4239C59.832 58.4559 61.4033 57.595 63.12 56.6537C65.0487 55.5973 67.1626 54.4391 67.8547 55.7459C69.1621 58.2171 58.8358 61.1229 58.7507 61.1439C55.4143 62.0079 46.9422 63.8328 43.9821 59.5134L43.9823 59.5196Z" fill="#FFD21E"/>
<path d="M45.6901 25.3114C46.1093 25.4592 46.4211 25.9088 46.718 26.3362C47.1192 26.9146 47.4924 27.4523 48.0655 27.1491C48.7415 26.7917 49.2957 26.2426 49.658 25.5714C50.0204 24.9002 50.1744 24.1372 50.1007 23.3788C50.0461 22.8117 49.8658 22.2638 49.5727 21.7745C49.2797 21.2852 48.8812 20.8667 48.4061 20.5492C47.6082 20.0165 46.6398 19.7981 45.6892 19.9364C44.7385 20.0748 43.8735 20.56 43.2622 21.2978C42.7756 21.8857 42.4747 22.6038 42.3976 23.3617C42.3209 24.1197 42.4716 24.8833 42.8308 25.5561C43.0963 26.0535 43.6856 25.819 44.3073 25.5714C44.7949 25.3773 45.3026 25.1753 45.6901 25.3114ZM27.4539 25.3117C27.0347 25.4595 26.7224 25.9091 26.426 26.3365C26.0245 26.9146 25.6513 27.4526 25.0783 27.1494C24.5732 26.8819 24.134 26.5062 23.7923 26.0494C23.4506 25.5926 23.215 25.066 23.1024 24.5076C22.9896 23.9493 23.0025 23.3731 23.1402 22.8203C23.2779 22.2676 23.5369 21.752 23.8987 21.3109C24.3831 20.7209 25.0323 20.2871 25.7643 20.0643C26.4964 19.8415 27.2783 19.8398 28.0113 20.0593C28.7444 20.2788 29.3955 20.7097 29.8826 21.2975C30.3696 21.8853 30.6706 22.6037 30.7475 23.3617C30.8241 24.1198 30.6731 24.8835 30.3135 25.5561C30.0474 26.0535 29.4584 25.8187 28.8365 25.5712C28.3491 25.377 27.8417 25.1753 27.4539 25.3117ZM42.8685 41.8276C45.7586 39.5611 46.8188 35.8607 46.8188 33.5821C46.8188 31.7803 45.6007 32.3473 43.6511 33.3079L43.5415 33.3622C41.7514 34.2444 39.3675 35.4187 36.7552 35.4187C34.1397 35.4187 31.7578 34.2441 29.9689 33.3619C27.9562 32.3694 26.6938 31.747 26.6938 33.5824C26.6938 35.9334 27.8231 39.793 30.9246 42.0365C31.3333 41.2098 31.9091 40.4761 32.6159 39.8811C33.3228 39.2862 34.1454 38.843 35.0323 38.5791C35.3418 38.4873 35.6604 39.0176 35.9871 39.5602C36.302 40.0843 36.6235 40.6197 36.951 40.6197C37.2994 40.6197 37.6426 40.092 37.9773 39.5767C38.3267 39.0381 38.6677 38.5132 38.9972 38.618C40.6567 39.1482 42.0449 40.2984 42.8696 41.8268L42.8685 41.8276Z" fill="#32343D"/>
<path d="M42.8508 41.8379C41.3455 43.0185 39.3447 43.8103 36.7389 43.8103C34.291 43.8103 32.3768 43.1114 30.9075 42.0476C31.3167 41.2213 31.8927 40.4878 32.5995 39.893C33.3063 39.2981 34.1288 38.8548 35.0154 38.5905C35.6236 38.41 36.2672 40.6311 36.9337 40.6311C37.6475 40.6311 38.3351 38.4242 38.9804 38.6294C40.6394 39.1604 42.0272 40.3105 42.8525 41.8382L42.8508 41.8379Z" fill="#FF323D"/>
<path d="M20.536 28.5195C20.2615 28.7036 19.9531 28.8319 19.6285 28.897C19.304 28.9621 18.9697 28.9628 18.6449 28.8989C18.1557 28.803 17.7062 28.5645 17.3534 28.2138C17.0007 27.863 16.7606 27.4159 16.6636 26.929C16.5994 26.6057 16.5998 26.273 16.6648 25.9499C16.7299 25.6267 16.8583 25.3195 17.0428 25.0459C17.3669 24.5659 17.848 24.2124 18.4042 24.0453C18.9605 23.8783 19.5577 23.908 20.0944 24.1294C20.6312 24.3508 21.0744 24.7504 21.3488 25.2601C21.6232 25.7699 21.712 26.3584 21.5999 26.9259C21.4715 27.5765 21.0888 28.1496 20.536 28.5195ZM56.5259 28.5195C56.2513 28.7036 55.9429 28.8319 55.6184 28.897C55.2938 28.9621 54.9596 28.9628 54.6348 28.8989C54.1456 28.803 53.696 28.5645 53.3433 28.2138C52.9905 27.863 52.7504 27.4159 52.6535 26.929C52.5648 26.4846 52.599 26.0245 52.7524 25.5978C52.9057 25.1711 53.1725 24.7939 53.5243 24.5062C53.8761 24.2186 54.2997 24.0314 54.75 23.9645C55.2002 23.8976 55.6603 23.9535 56.0812 24.1264C56.502 24.2992 56.8679 24.5825 57.1397 24.9459C57.4116 25.3094 57.5793 25.7395 57.6249 26.1904C57.6705 26.6413 57.5924 27.096 57.3989 27.5062C57.2053 27.9163 56.9036 28.2665 56.5259 28.5195Z" fill="#FFAD03"/>
</g>
<defs>
<clipPath id="clip0_516_4428">
<rect width="73.0967" height="67.9571" fill="white" transform="translate(0.772217 0.450317)"/>
</clipPath>
</defs>
</svg>
